<?xml version="1.0" encoding="utf-8"?>
<!-- Generator: Adobe Illustrator 24.0.1, SVG Export Plug-In . SVG Version: 6.00 Build 0)  -->
<svg version="1.1" id="Capa_1" xmlns="http://www.w3.org/2000/svg" xmlns:xlink="http://www.w3.org/1999/xlink" x="0px" y="0px"
	 viewBox="0 0 787 1024" style="enable-background:new 0 0 787 1024;" xml:space="preserve">
<style type="text/css">
	.st0{fill:#7DAF3C;}
	.st1{fill:#C6D47F;}
	.st2{fill:#80AE3B;}
	.st3{fill:#0E5A3C;}
	.st4{fill:#2E7734;}
	.st5{fill:#29622F;}
	.st6{fill:none;}
</style>
<g>
	<path class="st0" d="M46.5,650.69c0,0-3.63,319.94,295.35,359.31c0,0-29.05-131.67-154.94-217.8c0,0,99.26,18.46,171.89,156.28
		C358.8,948.47,411.72,693.76,46.5,650.69z"/>
	<path class="st1" d="M663.12,243.96c-97.32,33.99-242.06,104.39-341.37,241.63c-38.31-37.04-80.23-66.34-120.15-89.29
		c22.21-53.91,55.52-111.62,105.81-167.17C456.63,64.23,564.55,21.23,589.26,13.11c12.48,19.03,40.3,99.19,48.66,126.46
		C648.15,173.18,656.63,208.19,663.12,243.96z"/>
	<path class="st1" d="M134.09,619.02c-29.94-6.34-63.51-10.91-101.06-13.19c-8.11-24.61-30.82-113.01,0.37-254.06
		c22.96,6.47,75.99,23.34,136.37,55.56C133.47,504.99,132.72,587.05,134.09,619.02z"/>
	<path class="st2" d="M307.4,506.51c-28.07,42.74-51.66,91.45-68.5,146.88c-22.83-10.78-49.16-20.42-79.35-28.29
		c-1.25-21.05-3.49-104.01,33.06-205.1C230.92,442.33,271.09,470.87,307.4,506.51z"/>
	<path class="st3" d="M482.95,866.6c-14.72,11.03-30.44,21.31-46.79,30.44c-5.61,3.04-11.35,5.96-17.09,8.75
		c0.37-3.17,0.75-6.47,1.25-9.77l247.8-391.68V273.76C701.05,493.45,658.01,735.45,482.95,866.6z"/>
	<path class="st3" d="M729,686.49c-68.25,197.61-209.99,288.56-316.92,308.6c0.37-12.81,1.37-33.61,3.74-60.12
		c10.85-4.57,21.71-9.89,32.31-15.73c17.22-9.64,33.94-20.42,49.66-32.22c185.66-139.27,230.08-395.73,193.64-625.95
		c30.32-9.77,54.15-15.35,67.63-18.26C767.18,294.69,793.38,499.66,729,686.49z"/>
	<path class="st4" d="M394.62,625.99c-21.46-27.02-51.28-62.91-77.48-87.64c2.62-4.57,5.37-9.01,8.11-13.32
		C351.94,554.2,375.77,587.69,394.62,625.99z"/>
	<path class="st4" d="M482.95,866.6c-14.72,11.03-30.44,21.31-46.79,30.44c-5.61,3.04-11.35,5.96-17.09,8.75
		c0.37-3.17,0.75-6.47,1.25-9.77c13.1-101.22,46.79-251.27,133.26-371.51l48.29-67.1l-65.75,49.47
		c-3.12,2.28-55.02,42.11-108.05,132.29c-21.96-52.89-53.15-97.79-88.46-135.46c94.33-132.42,233.2-201.04,327.77-234.52
		c0.25-0.13,0.5-0.25,0.75-0.25v4.82C701.05,493.45,658.01,735.45,482.95,866.6z"/>
	<path class="st5" d="M412.21,667.6c-15.1,28.79-30.07,61.9-43.54,99.44C353.32,739.51,322,698.8,261.48,665.06
		c13.98-47.18,32.94-89.17,55.65-126.71c2.62-4.57,5.37-9.01,8.11-13.32c26.7,29.17,50.53,62.66,69.37,100.96
		c0,0.13,0.12,0.13,0.12,0.25C401.23,639.44,407.09,653.14,412.21,667.6z"/>
	<path class="st6" d="M46.5,650.69c0,0-13.31,310.19,295.35,359.31c0,0-33.71-139.45-154.94-217.8c0,0,99.23,22.14,171.89,156.28
		c0,0,38.6-151.09-133.29-247C225.51,701.47,172.02,666.19,46.5,650.69z"/>
</g>
</svg>
